<svg id="Layer_1" data-name="Layer 1" xmlns="http://www.w3.org/2000/svg" viewBox="0 0 1280 480"><defs><style>.cls-1{font-size:370.73px;font-family:ChollaSansOT-Thin, Cholla Sans OT;font-weight:200;}.cls-1,.cls-8{fill:#42b071;}.cls-2{letter-spacing:-0.04em;}.cls-3{letter-spacing:-0.09em;}.cls-4{letter-spacing:-0.06em;}.cls-5{letter-spacing:-0.02em;}.cls-6{letter-spacing:-0.01em;}.cls-7{letter-spacing:0em;}</style></defs><text class="cls-1" transform="translate(302.41 349.18) scale(1.08 1)"><tspan class="cls-2">A</tspan><tspan x="144.58" y="0">t</tspan><tspan class="cls-3" x="250.23" y="0">h</tspan><tspan class="cls-4" x="372.94" y="0">T</tspan><tspan class="cls-5" x="487.49" y="0">e</tspan><tspan class="cls-6" x="627.62" y="0">c</tspan><tspan class="cls-7" x="748.85" y="0">h</tspan></text><path class="cls-8" d="M131,172.65h45.45a5,5,0,0,1,5,5.2,5.19,5.19,0,0,1-5.26,4.9H131a5.05,5.05,0,1,1,0-10.1Zm45.21,124.57H131a5.05,5.05,0,0,0,0,10.1h45.44a5.06,5.06,0,0,0,5.05-5.18A5.21,5.21,0,0,0,176.24,297.22ZM217,307.5V281.32a15.19,15.19,0,0,0-15.15-15.15h-70.7a5.05,5.05,0,1,0,0,10.1h70.7a5,5,0,0,1,5.05,5.05V307.5a15.15,15.15,0,1,0,10.1,0Zm-40.62,84.14a15.15,15.15,0,1,1-20-16.85V343.56a5,5,0,0,0-5.05-5.05H126.14a38.93,38.93,0,0,1-38.92-38.58V218.45H68.32v81.5A57.82,57.82,0,0,0,121,357.12h.12l.19,0h.16a5.09,5.09,0,0,1,.63,10.06l-.15,0-.27,0s0,0,0,0a1.53,1.53,0,0,1-.3,0c-.53,0-1.06-.07-1.58-.12a68,68,0,0,1-61.59-67.25v-81.5H39.25v81.5a86.87,86.87,0,0,0,81.66,86.22h.54a5.08,5.08,0,0,1,.63,10.05l-.15,0-.27.05h0l-.29,0h0l-1.31-.07a97.07,97.07,0,0,1-90.94-96.34v-81.5H10.18v81.5A116,116,0,0,0,120.46,415.18c.45,0,.9.05,1.36.06a5.09,5.09,0,0,1,.26,10l-.15,0-.27.05h0a2.85,2.85,0,0,1-.29,0h0a1.71,1.71,0,0,1-.32,0h-.36A126.14,126.14,0,0,1,0,299.94V180.07A126.13,126.13,0,0,1,120,54.7h0l1.22,0a5.09,5.09,0,0,1,.79,10.07l-.15,0-.27,0s0,0,0,0l-.86,0A116,116,0,0,0,10.18,180.07v4H29.07v-4a97.06,97.06,0,0,1,91.15-96.34c.29,0,.58,0,.87-.06a5.1,5.1,0,0,1,1,10.09l-.15,0-1.29.07a86.89,86.89,0,0,0-81.39,86.21v4h18.9v-4A68,68,0,0,1,120,112.81c.32,0,.64-.06,1-.08a5.1,5.1,0,0,1,1.1,10.09c-.46,0-.92.06-1.38.11a57.8,57.8,0,0,0-52.38,57.14v4h18.9v-4a38.93,38.93,0,0,1,38.58-38.58h25.42a5,5,0,0,0,5.05-5.05V105.21a15.15,15.15,0,1,1,10.1,0v31.23a15.19,15.19,0,0,1-15.15,15.15H126.14v0A28.73,28.73,0,0,0,97.4,180.07V299.94a28.75,28.75,0,0,0,28.45,28.45h.29v0h25.24a15.21,15.21,0,0,1,15.16,15.15v31.23A15.15,15.15,0,0,1,176.42,391.64ZM29.07,194.21H10.18v14.06H29.07Zm29.08,0H39.25v14.06h18.9Zm29.07,0H68.32v14.07h18.9Zm165,30.64A15.15,15.15,0,0,0,238,235H131a5.05,5.05,0,1,0,0,10.1H238a15.13,15.13,0,1,0,14.22-20.2Zm-45.45-52.28v26.19a5,5,0,0,1-5.05,5.05H131a5.05,5.05,0,1,0,0,10.1h70.7a15.2,15.2,0,0,0,15.15-15.15V172.57a15.16,15.16,0,1,0-10.1,0Z"/></svg>