<svg id="Layer_1" data-name="Layer 1" xmlns="http://www.w3.org/2000/svg" viewBox="0 0 1280 1280"><defs><style>.cls-1{fill:#42b071;}</style></defs><path class="cls-1" d="M655.76,443.71H788.18a14.69,14.69,0,0,1,14.69,15.15c-.24,8.06-7.26,14.27-15.33,14.27H655.76a14.71,14.71,0,0,1,0-29.42Zm131.72,362.9H655.7a14.71,14.71,0,0,0,.1,29.42H788.18a14.71,14.71,0,0,0,14.71-15.09C802.68,812.84,795.58,806.61,787.48,806.61Zm118.86,29.95V760.29a44.26,44.26,0,0,0-44.13-44.14h-206a14.72,14.72,0,1,0,0,29.43h206a14.7,14.7,0,0,1,14.71,14.71v76.27a44.13,44.13,0,1,0,29.42,0ZM788,1081.67a44.14,44.14,0,1,1-58.23-49.07v-91a14.72,14.72,0,0,0-14.71-14.71H641.52v0A113.39,113.39,0,0,1,528.14,814.55V577.14l-55,0V814.55A168.44,168.44,0,0,0,626.49,981.11a1.72,1.72,0,0,1,.32,0h0a4.74,4.74,0,0,1,.55,0,3.57,3.57,0,0,1,.46,0,14.83,14.83,0,0,1,1.84,29.3l-.45.08c-.25,0-.5.11-.78.13a.09.09,0,0,1-.1,0,6.69,6.69,0,0,1-.89.08c-1.54-.08-3.08-.21-4.6-.36-100.1-9.32-178.76-93.24-179.43-195.89V577.11H388.4V814.55c.78,134,105.63,243.32,237.88,251.17h.21a1.72,1.72,0,0,1,.32,0h0a4.74,4.74,0,0,1,.55,0,1,1,0,0,1,.23,0l.23,0a14.83,14.83,0,0,1,1.84,29.3l-.45.08c-.25,0-.5.11-.78.13a.09.09,0,0,1-.1,0,6.4,6.4,0,0,1-.87.08h0c-1.26-.06-2.53-.12-3.8-.21C476.5,1086,359.57,964.2,358.75,814.55V577.11h-55V814.55c.91,180.26,142.92,327.1,321.28,335.72,1.31.06,2.62.12,4,.16a14.81,14.81,0,0,1,.76,29.15l-.45.09c-.25,0-.5.1-.78.12a.09.09,0,0,1-.1,0,6.42,6.42,0,0,1-.87.09h0a4.8,4.8,0,0,1-.93,0,3.23,3.23,0,0,1-.44,0,1.06,1.06,0,0,1-.25,0h-.17a.47.47,0,0,1-.17,0C430.78,1171.56,275,1011.52,274.06,814.55V465.34C275,269.17,429.6,109.36,623.7,100.1a.41.41,0,0,1,.15,0c1.18-.07,2.37-.11,3.55-.15a14.83,14.83,0,0,1,2.3,29.33c-.15,0-.3.07-.45.09s-.5.1-.78.13a.09.09,0,0,1-.1,0c-.85,0-1.69.06-2.51.1-178.57,8.13-321.24,155-322.15,335.76v11.57h55V465.34c.82-149.68,117.87-271.79,265.52-280.68.85-.06,1.69-.1,2.54-.14a14.85,14.85,0,0,1,2.89,29.38l-.45.08c-1.24.06-2.49.13-3.73.21-131.7,8.19-236.34,117.22-237.12,251.15v11.57h55.05V465.34c.67-102.8,79.6-187,180.25-196,.93-.1,1.86-.17,2.79-.23a14.86,14.86,0,0,1,3.21,29.4c-1.35.08-2.68.19-4,.31A168.39,168.39,0,0,0,473.1,465.34v11.57h55V465.34A113.38,113.38,0,0,1,640.52,353H714.6a14.73,14.73,0,0,0,14.71-14.73v-91a44.13,44.13,0,1,1,29.42,0v91a44.27,44.27,0,0,1-44.13,44.15H641.52v.08a83.72,83.72,0,0,0-83.73,82.88V814.55a83.76,83.76,0,0,0,82.88,82.88h.85v0h73.55a44.3,44.3,0,0,1,44.15,44.15v91A44.14,44.14,0,0,1,788,1081.67ZM358.75,506.54h-55v40.94h55Zm84.7,0-55.05,0v40.94h55.05Zm84.69,0h-55v41h55Zm480.71,89.25a44.14,44.14,0,0,0-41.43,29.42H655.76a14.71,14.71,0,1,0,0,29.42H967.42a44.07,44.07,0,1,0,41.43-58.84ZM876.44,443.5v76.27a14.73,14.73,0,0,1-14.71,14.73h-206a14.71,14.71,0,1,0,0,29.42h206a44.3,44.3,0,0,0,44.15-44.15V443.5a44.14,44.14,0,1,0-29.44,0Z"/></svg>